<?xml version="1.0" encoding="UTF-8" standalone="no"?>
<!-- Created with Inkscape (http://www.inkscape.org/) -->

<svg
   xmlns:dc="http://purl.org/dc/elements/1.1/"
   xmlns:cc="http://creativecommons.org/ns#"
   xmlns:rdf="http://www.w3.org/1999/02/22-rdf-syntax-ns#"
   xmlns:svg="http://www.w3.org/2000/svg"
   xmlns="http://www.w3.org/2000/svg"
   xmlns:sodipodi="http://sodipodi.sourceforge.net/DTD/sodipodi-0.dtd"
   xmlns:inkscape="http://www.inkscape.org/namespaces/inkscape"
   id="svg3576"
   sodipodi:docname="Pajarito-Pirate.svg"
   viewBox="0 0 475.35 460.65"
   version="1.1"
   inkscape:version="0.91 r13725">
  <defs
     id="defs16" />
  <sodipodi:namedview
     id="base"
     bordercolor="#666666"
     inkscape:pageshadow="2"
     inkscape:window-y="-8"
     pagecolor="#ffffff"
     inkscape:window-height="801"
     inkscape:window-maximized="1"
     inkscape:zoom="1.095627"
     inkscape:window-x="1528"
     showgrid="false"
     borderopacity="1.0"
     inkscape:current-layer="layer1"
     inkscape:cx="191.81915"
     inkscape:cy="225.08349"
     inkscape:window-width="1536"
     inkscape:pageopacity="0.0"
     inkscape:document-units="px" />
  <g
     id="layer1"
     inkscape:label="Layer 1"
     inkscape:groupmode="layer"
     transform="translate(-104.38 -10.883)">
    <path
       style="color:#000000;clip-rule:nonzero;display:inline;overflow:visible;visibility:visible;opacity:1;isolation:auto;mix-blend-mode:normal;color-interpolation:sRGB;color-interpolation-filters:linearRGB;solid-color:#000000;solid-opacity:1;fill:#aa4400;fill-opacity:1;fill-rule:evenodd;stroke:none;stroke-width:9.39999962;stroke-linecap:round;stroke-linejoin:round;stroke-miterlimit:4;stroke-dasharray:none;stroke-dashoffset:0;stroke-opacity:1;color-rendering:auto;image-rendering:auto;shape-rendering:auto;text-rendering:auto;enable-background:accumulate"
       d="m 355.75942,432.97091 5.16312,0 -0.64539,27.26773 -3.0656,0 z"
       id="rect4163"
       inkscape:connector-curvature="0"
       sodipodi:nodetypes="ccccc" />
    <path
       id="path4643"
       d="m309.26 399.56 0.40923 46.801-19.088 12.988 19.731-7.8405 2.5199 11.232 2.8941-11.199 18.317 8.1529-17.876-13.769 0.13754-46.647z"
       sodipodi:nodetypes="cccccccccc"
       style="fill:#1a1a1a"
       inkscape:connector-curvature="0" />
    <path
       id="path4620"
       sodipodi:nodetypes="cacsscssc"
       style="fill:#ff5555"
       inkscape:connector-curvature="0"
       d="m152.63 55.249c23.643-27.35 63.606-39.443 99.587-42.959 33.798-3.3028 75.525-2.4836 99.587 21.48 80.687 58.485 3.0034 218.08 50.77 265.57 43.455 43.195 82.985 27.867 99.326 24.952 28.471-5.079 77.83-38.343 77.83-38.343s-47.054 70.289-114.69 100.26c-37.84 16.75-102.62 38.34-193.3 22.48-125.39-21.94-194.47-261.56-119.11-353.44z" />
    <path
       id="path4625"
       sodipodi:rx="91.304344"
       sodipodi:ry="91.304344"
       style="fill:#ffffff"
       sodipodi:type="arc"
       d="m -6765.2171,2943.4783 a 91.304344,91.304344 0 0 1 -90.9506,91.3036 91.304344,91.304344 0 0 1 -91.6554,-90.5961 91.304344,91.304344 0 0 1 90.2403,-92.0057 91.304344,91.304344 0 0 1 92.3547,89.8831"
       sodipodi:open="true"
       transform="matrix(.22456 0 0 .22456 1696.2 -517.87)"
       sodipodi:cy="2943.4783"
       sodipodi:cx="-6856.5215"
       sodipodi:end="6.2676868"
       sodipodi:start="0" />
    <path
       id="path4628"
       sodipodi:rx="199.83452"
       sodipodi:ry="199.83452"
       style="fill:#333333"
       sodipodi:type="arc"
       sodipodi:start="0"
       sodipodi:open="true"
       transform="matrix(.034014 0 0 .034014 475.96 42.847)"
       sodipodi:cy="2896.5598"
       sodipodi:cx="-6428.5229"
       sodipodi:end="6.2676868"
       d="m -6228.6884,2896.5598 a 199.83452,199.83452 0 0 1 -199.0603,199.833 199.83452,199.83452 0 0 1 -200.6028,-198.2844 199.83452,199.83452 0 0 1 197.5058,-201.3696 199.83452,199.83452 0 0 1 202.1333,196.724" />
    <path
       id="path4630"
       sodipodi:rx="199.83452"
       sodipodi:ry="199.83452"
       style="fill:#333333"
       sodipodi:type="arc"
       d="m -6228.6884,2896.5598 a 199.83452,199.83452 0 0 1 -199.0603,199.833 199.83452,199.83452 0 0 1 -200.6028,-198.2844 199.83452,199.83452 0 0 1 197.5058,-201.3696 199.83452,199.83452 0 0 1 202.1333,196.724"
       sodipodi:open="true"
       transform="matrix(.021923 0 0 .021923 301.95 79.62)"
       sodipodi:cy="2896.5598"
       sodipodi:cx="-6428.5229"
       sodipodi:end="6.2676868"
       sodipodi:start="0" />
    <path
       id="path4633"
       sodipodi:nodetypes="scccss"
       style="fill-opacity:.47340;fill:#2b0000"
       inkscape:connector-curvature="0"
       d="m308.67 256.67c29.707 1.4764 61.917 53.447 104.92 72.225-18.067 0.87158-29.361-2.1368-37.386-6.9224 5.6504 8.9871 19.604 15.332 51.657 23.587-41.031 2.6345-113.8 9.2354-138.73-30.547-9.6376-15.377-1.1762-59.373 19.536-58.343z" />
    <path
       id="path4635"
       sodipodi:nodetypes="cccc"
       style="fill:#ffd42a"
       inkscape:connector-curvature="0"
       d="m165.9 184.39-61.513 34.997 71.06 7.8455z" />
    <path
       id="path4637"
       sodipodi:nodetypes="ccccc"
       style="fill:#1a1a1a"
       inkscape:connector-curvature="0"
       d="m 354.66,408.35 0.40924,24.801 c 0.18989,1.85725 5.40093,3.27532 6.4979,-0.4357 l 0.13754,-24.647 z" />
    <path
       id="path4647"
       sodipodi:nodetypes="csscc"
       style="fill:#ff8080"
       inkscape:connector-curvature="0"
       d="m144.82 280.4s7.4711-28.376 37.574-27.188c34.634 1.3662 64.085 18.808 81.12 72.49 12.768 40.234-4.4875 80.084-4.4875 80.084-58.757-15.517-98.616-83.599-114.21-125.39z" />
    <rect
       style="color:#000000;clip-rule:nonzero;display:inline;overflow:visible;visibility:visible;opacity:1;isolation:auto;mix-blend-mode:normal;color-interpolation:sRGB;color-interpolation-filters:linearRGB;solid-color:#000000;solid-opacity:1;fill:#483737;fill-opacity:1;fill-rule:evenodd;stroke:none;stroke-width:9.39999962;stroke-linecap:round;stroke-linejoin:round;stroke-miterlimit:4;stroke-dasharray:none;stroke-dashoffset:0;stroke-opacity:1;color-rendering:auto;image-rendering:auto;shape-rendering:auto;text-rendering:auto;enable-background:accumulate"
       id="rect4144"
       width="85.876961"
       height="90.066086"
       x="234.59453"
       y="40.527481"
       transform="matrix(0.97665403,0.21481831,-0.21481831,0.97665403,0,0)"
       ry="8.9190331" />
    <rect
       style="color:#000000;clip-rule:nonzero;display:inline;overflow:visible;visibility:visible;opacity:1;isolation:auto;mix-blend-mode:normal;color-interpolation:sRGB;color-interpolation-filters:linearRGB;solid-color:#000000;solid-opacity:1;fill:#483737;fill-opacity:1;fill-rule:evenodd;stroke:none;stroke-width:9.39999962;stroke-linecap:round;stroke-linejoin:round;stroke-miterlimit:4;stroke-dasharray:none;stroke-dashoffset:0;stroke-opacity:1;color-rendering:auto;image-rendering:auto;shape-rendering:auto;text-rendering:auto;enable-background:accumulate"
       id="rect4146"
       width="104.50637"
       height="14.60351"
       x="153.80289"
       y="27.794743"
       ry="0"
       transform="matrix(0.94749663,0.31976575,-0.31976575,0.94749663,0,0)" />
    <rect
       style="color:#000000;clip-rule:nonzero;display:inline;overflow:visible;visibility:visible;opacity:1;isolation:auto;mix-blend-mode:normal;color-interpolation:sRGB;color-interpolation-filters:linearRGB;solid-color:#000000;solid-opacity:1;fill:#483737;fill-opacity:1;fill-rule:evenodd;stroke:none;stroke-width:9.39999962;stroke-linecap:round;stroke-linejoin:round;stroke-miterlimit:4;stroke-dasharray:none;stroke-dashoffset:0;stroke-opacity:1;color-rendering:auto;image-rendering:auto;shape-rendering:auto;text-rendering:auto;enable-background:accumulate"
       id="rect4146-9"
       width="104.50637"
       height="14.60351"
       x="298.84598"
       y="87.895134"
       ry="0"
       transform="matrix(0.99501976,0.09967782,-0.09967782,0.99501976,0,0)" />
    <path
       id="path4620-3"
       sodipodi:nodetypes="csccc"
       style="fill:#d40000"
       inkscape:connector-curvature="0"
       d="M 185.80901,30.176755 C 206.27884,19.898887 230.00657,14.460365 252.217,12.29 286.01501,8.9873178 327.742,9.8063998 351.804,33.77 373.82408,49.730988 384.04896,73.22249 388.24751,99.910759 258.43828,83.157373 238.89171,64.006273 185.80901,30.176755 Z" />
    <path
       style="fill:#d40000;fill-opacity:1;fill-rule:evenodd;stroke:none;stroke-width:1px;stroke-linecap:butt;stroke-linejoin:miter;stroke-opacity:1"
       d="m 388.19028,99.868985 c 0,0 13.53894,-11.583207 27.10639,-10.971632 13.56745,0.611575 46.46808,23.879427 46.46808,23.879427 0,0 -28.72904,4.38281 -41.30496,1.93617 -12.57592,-2.44664 -32.26951,-14.843965 -32.26951,-14.843965 z"
       id="path4181"
       inkscape:connector-curvature="0"
       sodipodi:nodetypes="czczc" />
    <path
       style="fill:#d40000;fill-opacity:1;fill-rule:evenodd;stroke:none;stroke-width:1px;stroke-linecap:butt;stroke-linejoin:miter;stroke-opacity:1"
       d="m 437.90774,161.17046 c -26.15285,-5.57365 -31.95437,-11.89261 -37.27465,-18.49167 -5.32028,-6.59906 -12.76541,-44.76762 -12.76541,-44.76762 0,0 -3.97982,2.46007 22.71714,16.58297 26.69696,14.1229 23.38769,25.28358 27.32292,46.67632 z"
       id="path4181-1"
       inkscape:connector-curvature="0"
       sodipodi:nodetypes="czczc"
       inkscape:transform-center-x="-26.314466"
       inkscape:transform-center-y="32.11664" />
  </g>
  <metadata
     id="metadata16">
    <rdf:RDF>
      <cc:Work>
        <dc:format>image/svg+xml</dc:format>
        <dc:type
           rdf:resource="http://purl.org/dc/dcmitype/StillImage" />
        <cc:license
           rdf:resource="http://creativecommons.org/publicdomain/zero/1.0/" />
        <dc:publisher>
          <cc:Agent
             rdf:about="http://openclipart.org/">
            <dc:title>Openclipart</dc:title>
          </cc:Agent>
        </dc:publisher>
        <dc:title></dc:title>
      </cc:Work>
      <cc:License
         rdf:about="http://creativecommons.org/publicdomain/zero/1.0/">
        <cc:permits
           rdf:resource="http://creativecommons.org/ns#Reproduction" />
        <cc:permits
           rdf:resource="http://creativecommons.org/ns#Distribution" />
        <cc:permits
           rdf:resource="http://creativecommons.org/ns#DerivativeWorks" />
      </cc:License>
    </rdf:RDF>
  </metadata>
</svg>
